# xmcd CD database file
#
# Track frame offsets:
#	150
#	29528
#	47288
#	70025
#	132174
#
# Disc length: 2900 seconds
#
# Revision: 0
# Processed by: cddbd v1.5.2PL0 Copyright (c) Steve Scherf et al.
# Submitted via: CDex 1.95
#
DISCID=390b5205
DTITLE=Albert King and B.B.King and Bobby Blue Bland - Memphis Blues Festival 1975 CD 2
DYEAR=1975
DGENRE=Blues
TTITLE0=Let The Good Times Roll
TTITLE1=How Blues Can Get You
TTITLE2=Why I Sing The Blues
TTITLE3=Medley
TTITLE4=I Like To Live The Love
EXTD=YEAR: 1975
EXTT0=
EXTT1=
EXTT2=
EXTT3=
EXTT4=
PLAYORDER=
